# xmcd
#
# Track frame offsets: 
#        150
#        16141
#        31793
#        53506
#        63798
#        82548
#        99342
#        115699
#        130846
#        148947
#        164137
#        178987
#        191403
#        208659
#        222797
#        238896
#        254917
#        275568
#        290961
#        312834
#
# Disc length: 4404 seconds
#
# Revision: 0
# Processed by: cddbd v1.5.2PL0 Copyright (c) Steve Scherf et al.
# Submitted via: ExactAudioCopy v1.1
#
DISCID=28113214
DTITLE=Various Artist - Het Beste Uit De MNM 1000 Van 2016 - CD 1
DYEAR=2016
DGENRE=Pop
TTITLE0=Stromae - Formidable
TTITLE1=Calvin Harris and Disciples - How Deep Is Your Love
TTITLE2=The Black Eyed Peas - I Gotta Feeling
TTITLE3=Lost Frequencies - Are You With Me
TTITLE4=Ellie Goulding - Love Me Like You Do
TTITLE5=Demi Lovato - Let It Go
TTITLE6=Eiffel 65 - Blue (Da Ba Dee)
TTITLE7=Steps - 5, 6, 7, 8
TTITLE8=The Weeknd - The Hills
TTITLE9=Kygo Feat. Conrad - Firestone
TTITLE10=Jessie J Feat. Ariana Grande and Nicki Minaj - Bang Bang
TTITLE11=Milow - You Don't Know
TTITLE12=Nena - 99 Luftballons
TTITLE13=Mans Zelmerlöw - Heroes
TTITLE14=Sia - Chandelier
TTITLE15=Indila - Dernière Danse
TTITLE16=James Blake - Limit To Your Love
TTITLE17=Maroon 5 - This Love
TTITLE18=4 Non Blondes - What's Up?
TTITLE19=Oscar And The Wolf - Princes
EXTD=
EXTT0=
EXTT1=
EXTT2=
EXTT3=
EXTT4=
EXTT5=
EXTT6=
EXTT7=
EXTT8=
EXTT9=
EXTT10=
EXTT11=
EXTT12=
EXTT13=
EXTT14=
EXTT15=
EXTT16=
EXTT17=
EXTT18=
EXTT19=
PLAYORDER=
